<svg width="64" height="64" viewBox="0 0 64 64" fill="none" xmlns="http://www.w3.org/2000/svg">
<rect opacity="0.5" width="64" height="64" rx="32" fill="#E37059"/>
<path d="M31.5 43.0009C25.71 43.0009 21 38.2909 21 32.5009C21 26.7109 25.71 22.0009 31.5 22.0009C33.564 22.0009 35.565 22.6039 37.288 23.7439C37.517 23.8959 37.581 24.2069 37.429 24.4369C37.275 24.6679 36.965 24.7289 36.736 24.5779C35.178 23.5469 33.367 23.0009 31.5 23.0009C26.262 23.0009 22 27.2629 22 32.5009C22 37.7389 26.262 42.0009 31.5 42.0009C36.738 42.0009 41 37.7389 41 32.5009C41 30.6339 40.455 28.8229 39.423 27.2649C39.271 27.0349 39.334 26.7239 39.564 26.5719C39.793 26.4209 40.103 26.4819 40.257 26.7129C41.398 28.4349 42 30.4369 42 32.5009C42 38.2909 37.29 43.0009 31.5 43.0009Z" fill="#183B56"/>
<path d="M31.5 35.0009C30.121 35.0009 29 33.8789 29 32.5009C29 31.1229 30.121 30.0009 31.5 30.0009C32.879 30.0009 34 31.1229 34 32.5009C34 33.8789 32.879 35.0009 31.5 35.0009ZM31.5 31.0009C30.673 31.0009 30 31.6739 30 32.5009C30 33.3279 30.673 34.0009 31.5 34.0009C32.327 34.0009 33 33.3279 33 32.5009C33 31.6739 32.327 31.0009 31.5 31.0009Z" fill="#183B56"/>
<path d="M31.5 33.0009C31.372 33.0009 31.244 32.9519 31.146 32.8549C30.951 32.6599 30.951 32.3429 31.146 32.1479L39 24.2939V22.5009C39 22.3679 39.053 22.2409 39.146 22.1469L41.146 20.1469C41.29 20.0039 41.505 19.9599 41.691 20.0389C41.878 20.1169 42 20.2989 42 20.5009V22.0009H43.5C43.702 22.0009 43.885 22.1229 43.962 22.3099C44.039 22.4969 43.996 22.7119 43.854 22.8549L41.854 24.8549C41.76 24.9489 41.633 25.0009 41.5 25.0009H39.707L31.853 32.8549C31.756 32.9519 31.628 33.0009 31.5 33.0009ZM40 24.0009H41.293L42.293 23.0009H41.5C41.224 23.0009 41 22.7769 41 22.5009V21.7079L40 22.7079V24.0009Z" fill="#183B56"/>
<path d="M31.5 39.0009C27.916 39.0009 25 36.0849 25 32.5009C25 28.9169 27.916 26.0009 31.5 26.0009C32.47 26.0009 33.411 26.2159 34.297 26.6399C34.546 26.7599 34.651 27.0579 34.532 27.3069C34.413 27.5559 34.114 27.6609 33.865 27.5419C33.115 27.1829 32.319 27.0009 31.5 27.0009C28.468 27.0009 26 29.4679 26 32.5009C26 35.5339 28.468 38.0009 31.5 38.0009C34.532 38.0009 37 35.5339 37 32.5009C37 31.6819 36.817 30.8859 36.458 30.1349C36.339 29.8859 36.444 29.5879 36.693 29.4679C36.939 29.3479 37.24 29.4519 37.36 29.7029C37.785 30.5899 38 31.5309 38 32.5009C38 36.0849 35.084 39.0009 31.5 39.0009Z" fill="#183B56"/>
</svg>
