<svg width="64" height="64" viewBox="0 0 64 64" fill="none" xmlns="http://www.w3.org/2000/svg">
<rect opacity="0.5" width="64" height="64" rx="32" fill="#75C179"/>
<path d="M32.5 32C31.121 32 30 30.878 30 29.5C30 28.122 31.121 27 32.5 27C33.879 27 35 28.122 35 29.5C35 30.878 33.879 32 32.5 32ZM32.5 28C31.673 28 31 28.673 31 29.5C31 30.327 31.673 31 32.5 31C33.327 31 34 30.327 34 29.5C34 28.673 33.327 28 32.5 28Z" fill="#183B56"/>
<path d="M36.5 37H28.5C28.224 37 28 36.776 28 36.5C28 34.009 30.007 31 32.5 31C34.993 31 37 34.009 37 36.5C37 36.776 36.776 37 36.5 37ZM29.033 36H35.967C35.727 34.118 34.199 32 32.5 32C30.801 32 29.273 34.118 29.033 36Z" fill="#183B56"/>
<path d="M36.5 30C36.224 30 36 29.776 36 29.5C36 28.404 35.487 27.39 34.595 26.715C34.375 26.55 34.33 26.239 34.493 26.019C34.973 25.372 35.704 25 36.5 25C37.879 25 39 26.122 39 27.5C39 28.878 37.879 30 36.5 30ZM35.627 26.285C36.367 26.997 36.834 27.922 36.964 28.927C37.564 28.731 38 28.166 38 27.5C38 26.673 37.327 26 36.5 26C36.181 26 35.879 26.101 35.627 26.285Z" fill="#183B56"/>
<path d="M40.5 35H38.183C37.962 35 37.768 34.856 37.704 34.645C37.338 33.437 36.663 32.312 35.803 31.477C35.653 31.331 35.61 31.106 35.695 30.914C35.897 30.459 36 29.983 36 29.5C36 29.224 36.224 29 36.5 29C38.993 29 41 32.009 41 34.5C41 34.776 40.776 35 40.5 35ZM38.545 34H39.967C39.749 32.292 38.471 30.389 36.965 30.052C36.925 30.373 36.849 30.69 36.737 31C37.521 31.833 38.15 32.878 38.545 34Z" fill="#183B56"/>
<path d="M28.5 30C27.121 30 26 28.878 26 27.5C26 26.122 27.121 25 28.5 25C29.296 25 30.027 25.372 30.507 26.019C30.67 26.24 30.625 26.55 30.405 26.715C29.513 27.39 29 28.404 29 29.5C29 29.776 28.776 30 28.5 30ZM28.5 26C27.673 26 27 26.673 27 27.5C27 28.166 27.436 28.731 28.036 28.927C28.166 27.922 28.633 26.997 29.373 26.285C29.121 26.101 28.819 26 28.5 26Z" fill="#183B56"/>
<path d="M26.816 35H24.5C24.224 35 24 34.776 24 34.5C24 32.009 26.007 29 28.5 29C28.776 29 29 29.224 29 29.5C29 29.983 29.103 30.459 29.306 30.914C29.391 31.106 29.348 31.33 29.198 31.477C28.339 32.311 27.663 33.437 27.296 34.646C27.23 34.856 27.036 35 26.816 35ZM25.033 34H26.454C26.85 32.878 27.479 31.833 28.263 31C28.152 30.69 28.075 30.373 28.035 30.052C26.529 30.389 25.251 32.292 25.033 34Z" fill="#183B56"/>
<path d="M32.5 43C26.159 43 21 37.841 21 31.5C21 25.159 26.159 20 32.5 20C38.841 20 44 25.159 44 31.5C44 37.841 38.841 43 32.5 43ZM32.5 21C26.71 21 22 25.71 22 31.5C22 37.29 26.71 42 32.5 42C38.29 42 43 37.29 43 31.5C43 25.71 38.29 21 32.5 21Z" fill="#183B56"/>
<path d="M32.5 24C32.224 24 32 23.776 32 23.5V20.5C32 20.224 32.224 20 32.5 20C32.776 20 33 20.224 33 20.5V23.5C33 23.776 32.776 24 32.5 24Z" fill="#183B56"/>
<path d="M32.5 43C32.224 43 32 42.776 32 42.5V39.5C32 39.224 32.224 39 32.5 39C32.776 39 33 39.224 33 39.5V42.5C33 42.776 32.776 43 32.5 43Z" fill="#183B56"/>
<path d="M23.5 32H21.5C21.224 32 21 31.776 21 31.5C21 31.224 21.224 31 21.5 31H23.5C23.776 31 24 31.224 24 31.5C24 31.776 23.776 32 23.5 32Z" fill="#183B56"/>
<path d="M43.5 32H41.5C41.224 32 41 31.776 41 31.5C41 31.224 41.224 31 41.5 31H43.5C43.776 31 44 31.224 44 31.5C44 31.776 43.776 32 43.5 32Z" fill="#183B56"/>
</svg>
