<svg width="24" height="24" viewBox="0 0 24 24" fill="none" xmlns="http://www.w3.org/2000/svg">
<path d="M12 23.5C5.659 23.5 0.5 18.341 0.5 12C0.5 5.659 5.659 0.5 12 0.5C18.341 0.5 23.5 5.659 23.5 12C23.5 18.341 18.341 23.5 12 23.5ZM12 1.5C6.21 1.5 1.5 6.21 1.5 12C1.5 17.79 6.21 22.5 12 22.5C17.79 22.5 22.5 17.79 22.5 12C22.5 6.21 17.79 1.5 12 1.5Z" fill="#183B56"/>
<path d="M11.8752 14C11.7631 14 11.6494 13.9811 11.5409 13.9403C11.2135 13.8193 11 13.5317 11 13.2143V3.78571C11 3.352 11.3921 3 11.8752 3C12.3583 3 12.7503 3.352 12.7503 3.78571V11.3176L16.5065 7.94529C16.8478 7.63886 17.4027 7.63886 17.744 7.94529C18.0853 8.25171 18.0853 8.74986 17.744 9.05629L12.493 13.7706C12.3267 13.9199 12.1027 14 11.8752 14Z" fill="#183B56"/>
</svg>
