<svg width="92" height="92" viewBox="0 0 92 92" fill="none" xmlns="http://www.w3.org/2000/svg">
<rect opacity="0.2" width="92" height="92" rx="46" fill="#E37059"/>
<path d="M46.0764 61.2014C37.7358 61.2014 30.9514 54.4153 30.9514 46.0764C30.9514 37.7375 37.7358 30.9514 46.0764 30.9514C54.417 30.9514 61.2014 37.7375 61.2014 46.0764C61.2014 54.4153 54.417 61.2014 46.0764 61.2014ZM46.0764 32.6319C38.6635 32.6319 32.6319 38.6635 32.6319 46.0764C32.6319 53.4893 38.6635 59.5208 46.0764 59.5208C53.4893 59.5208 59.5208 53.4893 59.5208 46.0764C59.5208 38.6635 53.4893 32.6319 46.0764 32.6319Z" fill="#183B56"/>
<path d="M46.0764 50.2778C43.7589 50.2778 41.875 48.3922 41.875 46.0764C41.875 43.7606 43.7589 41.875 46.0764 41.875C48.3939 41.875 50.2778 43.7606 50.2778 46.0764C50.2778 48.3922 48.3939 50.2778 46.0764 50.2778ZM46.0764 43.5555C44.6866 43.5555 43.5556 44.6866 43.5556 46.0764C43.5556 47.4662 44.6866 48.5972 46.0764 48.5972C47.4662 48.5972 48.5972 47.4662 48.5972 46.0764C48.5972 44.6866 47.4662 43.5555 46.0764 43.5555Z" fill="#183B56"/>
<path d="M47.7553 43.5556C47.3335 43.5556 46.9688 43.2379 46.9217 42.8077L46.0764 35.1998L45.2311 42.8077C45.179 43.2699 44.7706 43.5875 44.3017 43.5505C43.8413 43.4984 43.5085 43.0833 43.5606 42.6228L45.2412 27.4978C45.2882 27.071 45.6479 26.75 46.0764 26.75C46.5049 26.75 46.8646 27.071 46.9116 27.4978L48.5922 42.6228C48.6426 43.0833 48.3115 43.4984 47.8511 43.5505C47.8175 43.5539 47.7872 43.5556 47.7553 43.5556Z" fill="#183B56"/>
<path d="M49.4358 48.5972C49.014 48.5972 48.6493 48.2796 48.6023 47.8493C48.5518 47.3889 48.8829 46.9738 49.3434 46.9217L56.9546 46.0763L49.3451 45.231C48.8846 45.1789 48.5518 44.7638 48.6039 44.3034C48.6544 43.8412 49.0526 43.5051 49.5333 43.5606L64.6583 45.2411C65.0818 45.2882 65.4028 45.6478 65.4028 46.0763C65.4028 46.5049 65.0818 46.8645 64.6566 46.9116L49.5316 48.5921C49.498 48.5955 49.4677 48.5972 49.4358 48.5972Z" fill="#183B56"/>
<path d="M46.0764 65.4027C45.6478 65.4027 45.2882 65.0817 45.2411 64.6549L43.5606 49.5299C43.5102 49.0694 43.8412 48.6543 44.3017 48.6022C44.7706 48.5484 45.179 48.8829 45.2311 49.345L46.0764 56.9529L46.9217 49.345C46.9721 48.8829 47.3704 48.5468 47.851 48.6022C48.3115 48.6543 48.6443 49.0694 48.5922 49.5299L46.9116 64.6549C46.8646 65.0817 46.5049 65.4027 46.0764 65.4027Z" fill="#183B56"/>
<path d="M42.717 48.5972C42.685 48.5972 42.6548 48.5956 42.6212 48.5922L27.4962 46.9116C27.071 46.8646 26.75 46.5049 26.75 46.0764C26.75 45.6479 27.071 45.2882 27.4962 45.2412L42.6212 43.5606C43.09 43.5068 43.4967 43.8413 43.5505 44.3034C43.6009 44.7639 43.2699 45.179 42.8094 45.2311L35.1982 46.0764L42.8077 46.9217C43.2682 46.9738 43.6009 47.3889 43.5488 47.8494C43.5035 48.2796 43.1388 48.5972 42.717 48.5972Z" fill="#183B56"/>
<path d="M43.5556 44.3958C43.3404 44.3958 43.1253 44.3135 42.9606 44.1505L35.3981 36.588C35.0704 36.2602 35.0704 35.7275 35.3981 35.3998C35.7258 35.0721 36.2586 35.0721 36.5863 35.3998L44.1488 42.9623C44.4765 43.29 44.4765 43.8227 44.1488 44.1505C43.9858 44.3135 43.7707 44.3958 43.5556 44.3958Z" fill="#183B56"/>
<path d="M48.5972 44.3958C48.3821 44.3958 48.167 44.3135 48.0023 44.1505C47.6746 43.8227 47.6746 43.29 48.0023 42.9623L55.5648 35.3998C55.8925 35.0721 56.4253 35.0721 56.753 35.3998C57.0807 35.7275 57.0807 36.2602 56.753 36.588L49.1905 44.1505C49.0275 44.3135 48.8123 44.3958 48.5972 44.3958Z" fill="#183B56"/>
<path d="M56.1597 57C55.9446 57 55.7295 56.9177 55.5648 56.7546L48.0023 49.1921C47.6746 48.8644 47.6746 48.3317 48.0023 48.004C48.33 47.6763 48.8628 47.6763 49.1905 48.004L56.753 55.5665C57.0807 55.8942 57.0807 56.4269 56.753 56.7546C56.59 56.9177 56.3748 57 56.1597 57Z" fill="#183B56"/>
<path d="M35.9931 57C35.7779 57 35.5628 56.9177 35.3981 56.7546C35.0704 56.4269 35.0704 55.8942 35.3981 55.5665L42.9606 48.004C43.2883 47.6763 43.8211 47.6763 44.1488 48.004C44.4765 48.3317 44.4765 48.8644 44.1488 49.1921L36.5863 56.7546C36.4233 56.9177 36.2082 57 35.9931 57Z" fill="#183B56"/>
</svg>
