<svg width="64" height="64" viewBox="0 0 64 64" fill="none" xmlns="http://www.w3.org/2000/svg">
<rect opacity="0.5" width="64" height="64" rx="32" fill="#F6AB37"/>
<path d="M44.4332 23.6093H34.4988C34.2601 22.5055 33.2458 21.6403 32.0823 21.6403C30.889 21.6403 29.9045 22.4756 29.6659 23.6093H20.537C20.2387 23.6093 20 23.848 20 24.1463C20 24.4446 20.2387 24.6833 20.537 24.6833H29.636C29.8747 25.7871 30.889 26.6523 32.0525 26.6523C33.2458 26.6523 34.2303 25.8169 34.469 24.6833H44.4332C44.7315 24.6833 44.9702 24.4446 44.9702 24.1463C44.9702 23.848 44.7315 23.6093 44.4332 23.6093ZM32.0823 25.6081C31.3067 25.6081 30.6504 24.9816 30.6504 24.1761C30.6504 23.3706 31.2768 22.7441 32.0823 22.7441C32.858 22.7441 33.5143 23.3706 33.5143 24.1761C33.5143 24.9518 32.8878 25.6081 32.0823 25.6081Z" fill="#183B56"/>
<path d="M44.463 30.978H29.3974C29.1587 29.8742 28.1444 29.009 26.9809 29.009C25.7876 29.009 24.8031 29.8443 24.5644 30.978H20.537C20.2387 30.978 20 31.2166 20 31.515C20 31.8133 20.2387 32.052 20.537 32.052H24.5644C24.8031 33.1558 25.8174 34.0209 26.9809 34.0209C28.1742 34.0209 29.1587 33.1856 29.3974 32.052H44.463C44.7613 32.052 45 31.8133 45 31.515C45 31.2166 44.7613 30.978 44.463 30.978ZM26.9809 32.9469C26.2053 32.9469 25.5489 32.3205 25.5489 31.515C25.5489 30.7393 26.2053 30.083 26.9809 30.083C27.7566 30.083 28.4129 30.7095 28.4129 31.515C28.4129 32.2906 27.7864 32.9469 26.9809 32.9469Z" fill="#183B56"/>
<path d="M44.4332 38.3168H39.7494C39.5107 37.2129 38.4964 36.3478 37.3329 36.3478C36.1396 36.3478 35.1551 37.1831 34.9165 38.3168H20.537C20.2387 38.3168 20 38.5554 20 38.8537C20 39.1521 20.2387 39.3907 20.537 39.3907H34.8866C35.1253 40.4946 36.1396 41.3597 37.3031 41.3597C38.4964 41.3597 39.4809 40.5244 39.7196 39.3907H44.4332C44.7315 39.3907 44.9702 39.1521 44.9702 38.8537C44.9702 38.5554 44.7315 38.3168 44.4332 38.3168ZM37.3031 40.3156C36.5274 40.3156 35.8711 39.6891 35.8711 38.8836C35.8711 38.0781 36.5274 37.4516 37.3031 37.4516C38.0788 37.4516 38.7351 38.0781 38.7351 38.8836C38.7351 39.6891 38.1086 40.3156 37.3031 40.3156Z" fill="#183B56"/>
</svg>
