<svg width="23" height="23" viewBox="0 0 23 23" fill="none" xmlns="http://www.w3.org/2000/svg">
<g opacity="0.7">
<path d="M11.0833 21C10.9867 21 10.8892 20.9658 10.8108 20.8983C10.5325 20.6583 4 14.9317 4 8.08333C4 4.1775 7.1775 1 11.0833 1C14.9892 1 18.1667 4.1775 18.1667 8.08333C18.1667 14.9317 11.6342 20.6583 11.3558 20.8983C11.2775 20.9658 11.18 21 11.0833 21ZM11.0833 1.83333C7.63667 1.83333 4.83333 4.63667 4.83333 8.08333C4.83333 13.785 9.84667 18.855 11.0833 20.0183C12.3192 18.8542 17.3333 13.7783 17.3333 8.08333C17.3333 4.63667 14.53 1.83333 11.0833 1.83333Z" fill="#183B56"/>
<path d="M11.0833 12.6667C8.55667 12.6667 6.5 10.6108 6.5 8.08333C6.5 5.55583 8.55667 3.5 11.0833 3.5C13.61 3.5 15.6667 5.55583 15.6667 8.08333C15.6667 10.6108 13.61 12.6667 11.0833 12.6667ZM11.0833 4.33333C9.01583 4.33333 7.33333 6.01583 7.33333 8.08333C7.33333 10.1508 9.01583 11.8333 11.0833 11.8333C13.1508 11.8333 14.8333 10.1508 14.8333 8.08333C14.8333 6.01583 13.1508 4.33333 11.0833 4.33333Z" fill="#183B56"/>
</g>
</svg>
