<svg width="94" height="94" viewBox="0 0 94 94" fill="none" xmlns="http://www.w3.org/2000/svg">
<rect opacity="0.2" x="1" y="1" width="92" height="92" rx="46" fill="#3C9F86" stroke="#FFEDB6"/>
<path d="M65.9524 58.6667H27.8571C27.3314 58.6667 26.9048 58.24 26.9048 57.7143V32.9524C26.9048 32.4267 27.3314 32 27.8571 32H65.9524C66.4781 32 66.9048 32.4267 66.9048 32.9524V57.7143C66.9048 58.24 66.4781 58.6667 65.9524 58.6667ZM28.8095 56.7619H65V33.9048H28.8095V56.7619Z" fill="#183B56"/>
<path d="M27.8571 33.9048H25.9524C25.4267 33.9048 25 33.4781 25 32.9524C25 32.4267 25.4267 32 25.9524 32H27.8571C28.3829 32 28.8095 32.4267 28.8095 32.9524C28.8095 33.4781 28.3829 33.9048 27.8571 33.9048Z" fill="#183B56"/>
<path d="M67.8571 33.9048H65.9524C65.4267 33.9048 65 33.4781 65 32.9524C65 32.4267 65.4267 32 65.9524 32H67.8571C68.3829 32 68.8095 32.4267 68.8095 32.9524C68.8095 33.4781 68.3829 33.9048 67.8571 33.9048Z" fill="#183B56"/>
<path d="M46.9048 68.1905C46.379 68.1905 45.9524 67.7638 45.9524 67.2381V57.7143C45.9524 57.1886 46.379 56.7619 46.9048 56.7619C47.4305 56.7619 47.8571 57.1886 47.8571 57.7143V67.2381C47.8571 67.7638 47.4305 68.1905 46.9048 68.1905Z" fill="#183B56"/>
<path d="M46.9048 72C45.3295 72 44.0476 70.7181 44.0476 69.1428C44.0476 67.5676 45.3295 66.2857 46.9048 66.2857C48.48 66.2857 49.7619 67.5676 49.7619 69.1428C49.7619 70.7181 48.48 72 46.9048 72ZM46.9048 68.1905C46.3791 68.1905 45.9524 68.6171 45.9524 69.1428C45.9524 69.6686 46.3791 70.0952 46.9048 70.0952C47.4305 70.0952 47.8571 69.6686 47.8571 69.1428C47.8571 68.6171 47.4305 68.1905 46.9048 68.1905Z" fill="#183B56"/>
<path d="M62.1429 45.3333H54.5238C53.9981 45.3333 53.5714 44.9067 53.5714 44.381V36.7619C53.5714 36.2362 53.9981 35.8095 54.5238 35.8095C59.2495 35.8095 63.0952 39.6553 63.0952 44.381C63.0952 44.9067 62.6686 45.3333 62.1429 45.3333ZM55.4762 43.4286H61.1219C60.7029 40.5124 58.3905 38.2 55.4762 37.7829V43.4286Z" fill="#183B56"/>
<path d="M52.6191 54.8572C47.8933 54.8572 44.0476 51.0114 44.0476 46.2857C44.0476 41.56 47.8933 37.7143 52.6191 37.7143C53.1448 37.7143 53.5714 38.141 53.5714 38.6667C53.5714 39.1924 53.1448 39.6191 52.6191 39.6191C48.9429 39.6191 45.9524 42.6095 45.9524 46.2857C45.9524 49.9619 48.9429 52.9524 52.6191 52.9524C56.2952 52.9524 59.2857 49.9619 59.2857 46.2857C59.2857 45.76 59.7124 45.3333 60.2381 45.3333C60.7638 45.3333 61.1905 45.76 61.1905 46.2857C61.1905 51.0114 57.3448 54.8572 52.6191 54.8572Z" fill="#183B56"/>
<path d="M39.2857 54.8571C38.76 54.8571 38.3333 54.4305 38.3333 53.9048V38.6667C38.3333 38.1409 38.76 37.7143 39.2857 37.7143C39.8114 37.7143 40.2381 38.1409 40.2381 38.6667V53.9048C40.2381 54.4305 39.8114 54.8571 39.2857 54.8571Z" fill="#183B56"/>
<path d="M35.4762 54.8571C34.9505 54.8571 34.5238 54.4305 34.5238 53.9048V44.381C34.5238 43.8552 34.9505 43.4286 35.4762 43.4286C36.0019 43.4286 36.4286 43.8552 36.4286 44.381V53.9048C36.4286 54.4305 36.0019 54.8571 35.4762 54.8571Z" fill="#183B56"/>
<path d="M31.6667 54.8571C31.141 54.8571 30.7143 54.4305 30.7143 53.9048V48.1905C30.7143 47.6648 31.141 47.2381 31.6667 47.2381C32.1924 47.2381 32.619 47.6648 32.619 48.1905V53.9048C32.619 54.4305 32.1924 54.8571 31.6667 54.8571Z" fill="#183B56"/>
</svg>
