<svg width="94" height="94" viewBox="0 0 94 94" fill="none" xmlns="http://www.w3.org/2000/svg">
<rect opacity="0.2" x="1" y="1" width="92" height="92" rx="46" fill="#3C9F86" stroke="#FFEDB6"/>
<path d="M52.252 42.6188C51.9002 42.6188 51.5676 42.4028 51.437 42.0545L47.0274 30.2958L42.6179 42.0545C42.449 42.5038 41.9422 42.7285 41.4964 42.5631C41.0453 42.3941 40.8172 41.8926 40.9879 41.4415L46.2124 27.5094C46.4667 26.8302 47.5865 26.8302 47.8425 27.5094L53.067 41.4415C53.2377 41.8926 53.0095 42.3941 52.5585 42.5631C52.4575 42.6014 52.3547 42.6188 52.252 42.6188Z" fill="#183B56"/>
<path d="M47.0274 67C46.6652 67 46.3395 66.7753 46.2124 66.4357L40.9879 52.5036C40.8172 52.0526 41.0453 51.551 41.4964 51.3821C41.944 51.2149 42.449 51.4413 42.6179 51.8906L47.0274 63.6493L51.437 51.8906C51.6059 51.4396 52.1109 51.2132 52.5585 51.3821C53.0095 51.551 53.2377 52.0526 53.067 52.5036L47.8425 66.4357C47.7153 66.7753 47.3897 67 47.0274 67Z" fill="#183B56"/>
<path d="M52.252 53.0679C51.9002 53.0679 51.5676 52.8519 51.4369 52.5036C51.2663 52.0526 51.4944 51.551 51.9455 51.3821L63.7042 46.9726L51.9455 42.563C51.4944 42.3941 51.2663 41.8926 51.4369 41.4415C51.6059 40.9905 52.1109 40.7641 52.5585 40.933L66.4906 46.1575C66.8302 46.2847 67.0549 46.6103 67.0549 46.9726C67.0549 47.3348 66.8302 47.6605 66.4906 47.7876L52.5585 53.0121C52.4575 53.0505 52.3547 53.0679 52.252 53.0679Z" fill="#183B56"/>
<path d="M41.8029 53.0679C41.7001 53.0679 41.5974 53.0505 41.4964 53.0121L27.5643 47.7876C27.2247 47.6605 27 47.3365 27 46.9726C27 46.6086 27.2247 46.2847 27.5643 46.1575L41.4964 40.933C41.9439 40.7658 42.449 40.9905 42.6179 41.4415C42.7886 41.8926 42.5604 42.3941 42.1094 42.563L30.3507 46.9726L42.1094 51.3821C42.5604 51.551 42.7886 52.0526 42.6179 52.5036C42.4873 52.8519 42.1547 53.0679 41.8029 53.0679Z" fill="#183B56"/>
<path d="M47.0274 54.8094C46.5468 54.8094 46.1567 54.4193 46.1567 53.9386V40.0065C46.1567 39.5259 46.5468 39.1358 47.0274 39.1358C47.5081 39.1358 47.8982 39.5259 47.8982 40.0065V53.9386C47.8982 54.4193 47.5081 54.8094 47.0274 54.8094Z" fill="#183B56"/>
<path d="M53.9935 47.8433H40.0614C39.5807 47.8433 39.1906 47.4532 39.1906 46.9726C39.1906 46.4919 39.5807 46.1018 40.0614 46.1018H53.9935C54.4742 46.1018 54.8643 46.4919 54.8643 46.9726C54.8643 47.4532 54.4742 47.8433 53.9935 47.8433Z" fill="#183B56"/>
<path d="M33.0953 61.7754C32.8724 61.7754 32.6495 61.6901 32.4788 61.5212C32.1392 61.1816 32.1392 60.6295 32.4788 60.2899L37.7034 55.0654C38.043 54.7258 38.595 54.7258 38.9346 55.0654C39.2742 55.405 39.2742 55.957 38.9346 56.2966L33.7101 61.5212C33.5411 61.6901 33.3182 61.7754 33.0953 61.7754Z" fill="#183B56"/>
<path d="M55.735 39.1357C55.5121 39.1357 55.2892 39.0504 55.1185 38.8815C54.7789 38.5419 54.7789 37.9898 55.1185 37.6502L60.3431 32.4257C60.6827 32.0861 61.2347 32.0861 61.5743 32.4257C61.9139 32.7653 61.9139 33.3173 61.5743 33.6569L56.3498 38.8815C56.1809 39.0504 55.9579 39.1357 55.735 39.1357Z" fill="#183B56"/>
<path d="M38.3199 39.1357C38.0969 39.1357 37.874 39.0504 37.7034 38.8815L32.4788 33.6569C32.1392 33.3173 32.1392 32.7653 32.4788 32.4257C32.8184 32.0861 33.3705 32.0861 33.7101 32.4257L38.9346 37.6502C39.2742 37.9898 39.2742 38.5419 38.9346 38.8815C38.7657 39.0504 38.5428 39.1357 38.3199 39.1357Z" fill="#183B56"/>
<path d="M60.9596 61.7755C60.7366 61.7755 60.5137 61.6901 60.3431 61.5212L55.1203 56.2984C54.7807 55.9588 54.7807 55.4067 55.1203 55.0671C55.4598 54.7275 56.0119 54.7275 56.3515 55.0671L61.5743 60.2899C61.9139 60.6295 61.9139 61.1816 61.5743 61.5212C61.4054 61.6901 61.1825 61.7755 60.9596 61.7755Z" fill="#183B56"/>
</svg>
