<svg width="64" height="64" viewBox="0 0 64 64" fill="none" xmlns="http://www.w3.org/2000/svg">
<rect opacity="0.5" width="64" height="64" rx="32" fill="#3C9F86"/>
<path d="M42 43.5855C41.616 43.5855 41.232 43.4395 40.939 43.1475L30.647 32.8535C30.452 32.6585 30.452 32.3415 30.647 32.1465C30.842 31.9515 31.159 31.9515 31.354 32.1465L41.647 42.4395C41.842 42.6345 42.159 42.6345 42.354 42.4395L42.44 42.3535C42.635 42.1585 42.635 41.8415 42.44 41.6465L30.647 29.8535C30.452 29.6585 30.452 29.3415 30.647 29.1465C30.842 28.9515 31.159 28.9515 31.354 29.1465L43.147 40.9395C43.732 41.5245 43.732 42.4755 43.147 43.0605L43.061 43.1465C42.768 43.4395 42.385 43.5855 42 43.5855Z" fill="#183B56"/>
<path d="M29.5 32.0005C29.403 32.0005 29.307 31.9725 29.223 31.9165L26.5 30.1015L23.777 31.9165C23.613 32.0255 23.4 32.0295 23.233 31.9235C23.066 31.8185 22.977 31.6255 23.004 31.4295L23.45 28.3085L20.304 26.9595C20.12 26.8805 20 26.7005 20 26.5005C20 26.3005 20.119 26.1195 20.303 26.0415L23.45 24.6925L23.005 21.5705C22.977 21.3755 23.067 21.1825 23.234 21.0775C23.401 20.9715 23.614 20.9745 23.778 21.0845L26.501 22.8995L29.223 21.0845C29.387 20.9755 29.6 20.9715 29.767 21.0775C29.934 21.1825 30.023 21.3755 29.996 21.5715L29.55 24.6915L32.697 26.0405C32.881 26.1195 33 26.2995 33 26.4995C33 26.6995 32.881 26.8805 32.697 26.9585L29.55 28.3085L29.976 31.2935C30.004 31.3565 30.02 31.4255 30.02 31.4995C30.02 31.7795 29.8 31.9965 29.51 31.9995C29.507 32.0005 29.504 32.0005 29.5 32.0005ZM26.5 29.0005C26.597 29.0005 26.693 29.0285 26.777 29.0845L28.846 30.4645L28.505 28.0705C28.473 27.8465 28.595 27.6295 28.803 27.5405L31.23 26.4995L28.804 25.4595C28.596 25.3705 28.474 25.1535 28.506 24.9295L28.848 22.5365L26.779 23.9165C26.611 24.0285 26.392 24.0285 26.224 23.9165L24.155 22.5365L24.497 24.9295C24.529 25.1535 24.407 25.3705 24.199 25.4595L21.77 26.5005L24.197 27.5415C24.405 27.6305 24.527 27.8475 24.495 28.0715L24.153 30.4645L26.222 29.0845C26.307 29.0275 26.404 29.0005 26.5 29.0005Z" fill="#183B56"/>
<path d="M26.53 22.0005C26.254 22.0005 26.025 21.7765 26.025 21.5005C26.025 21.2245 26.244 21.0005 26.52 21.0005H26.53C26.806 21.0005 27.03 21.2245 27.03 21.5005C27.03 21.7765 26.807 22.0005 26.53 22.0005Z" fill="#183B56"/>
<path d="M31.53 24.0005C31.254 24.0005 31.025 23.7765 31.025 23.5005C31.025 23.2245 31.244 23.0005 31.52 23.0005H31.53C31.806 23.0005 32.03 23.2245 32.03 23.5005C32.03 23.7765 31.807 24.0005 31.53 24.0005Z" fill="#183B56"/>
<path d="M21.53 24.0005C21.254 24.0005 21.025 23.7765 21.025 23.5005C21.025 23.2245 21.244 23.0005 21.52 23.0005H21.53C21.806 23.0005 22.03 23.2245 22.03 23.5005C22.03 23.7765 21.807 24.0005 21.53 24.0005Z" fill="#183B56"/>
<path d="M26.53 32.0005C26.254 32.0005 26.025 31.7765 26.025 31.5005C26.025 31.2245 26.244 31.0005 26.52 31.0005H26.53C26.806 31.0005 27.03 31.2245 27.03 31.5005C27.03 31.7765 26.807 32.0005 26.53 32.0005Z" fill="#183B56"/>
<path d="M21.53 30.0005C21.254 30.0005 21.025 29.7765 21.025 29.5005C21.025 29.2245 21.244 29.0005 21.52 29.0005H21.53C21.806 29.0005 22.03 29.2245 22.03 29.5005C22.03 29.7765 21.807 30.0005 21.53 30.0005Z" fill="#183B56"/>
<path d="M37 38.5005C36.872 38.5005 36.744 38.4515 36.646 38.3545C36.451 38.1595 36.451 37.8425 36.646 37.6475L37.646 36.6475C37.841 36.4525 38.158 36.4525 38.353 36.6475C38.548 36.8425 38.548 37.1595 38.353 37.3545L37.353 38.3545C37.256 38.4515 37.128 38.5005 37 38.5005Z" fill="#183B56"/>
</svg>
